<?xml version="1.0" standalone="no"?>
<!DOCTYPE svg PUBLIC "-//W3C//DTD SVG 20010904//EN"
 "http://www.w3.org/TR/2001/REC-SVG-20010904/DTD/svg10.dtd">
<svg version="1.0" xmlns="http://www.w3.org/2000/svg"
 width="512.000000pt" height="512.000000pt" viewBox="0 0 512.000000 512.000000"
 preserveAspectRatio="xMidYMid meet">
<metadata>
Created by potrace 1.13, written by Peter Selinger 2001-2015
</metadata>
<g transform="translate(0.000000,512.000000) scale(0.100000,-0.100000)"
fill="#000000" stroke="none">
<path d="M2508 3860 l3 -230 -77 0 -76 0 26 -34 c24 -33 25 -37 14 -90 l-11
-56 -49 0 c-52 0 -52 -1 -63 -62 -4 -27 -11 -38 -24 -38 -30 0 -199 -88 -260
-134 -113 -87 -215 -215 -267 -335 l-27 -61 -58 0 c-56 0 -59 -1 -59 -25 l0
-25 -175 0 -175 0 0 -55 c0 -52 1 -55 25 -55 23 0 25 -3 25 -50 l0 -50 -301
-2 -302 -3 1 -57 c1 -111 1 -108 22 -108 20 0 20 -7 20 -555 0 -548 0 -555
-20 -555 -19 0 -20 -7 -20 -105 l0 -105 1825 0 1825 0 0 105 0 105 -25 0 -25
0 0 555 0 555 25 0 c25 0 25 1 25 85 l0 85 -305 0 -305 0 0 50 0 50 50 0 50 0
0 55 0 55 -200 0 -200 0 0 25 c0 21 -5 25 -29 25 -26 0 -32 7 -65 77 -65 137
-169 260 -289 342 -58 39 -199 106 -244 116 -25 5 -33 12 -33 28 0 53 -10 66
-54 69 l-41 3 -9 52 c-7 45 -6 56 14 87 l22 36 -87 0 -86 0 3 230 c2 149 -1
230 -7 230 -6 0 -9 -81 -7 -230z m116 -341 c14 -71 17 -69 -100 -69 l-106 0 7
43 c4 23 9 45 12 50 2 4 44 7 92 7 l89 0 6 -31z m56 -169 c79 -13 104 -29 155
-106 51 -75 94 -202 108 -321 13 -114 26 -115 15 -1 -12 132 -61 271 -125 356
-14 18 -23 35 -20 38 10 11 207 -99 269 -150 79 -66 161 -171 212 -273 l36
-73 -800 0 -800 0 25 55 c54 122 166 257 280 335 46 31 174 100 188 100 4 0
-6 -20 -23 -45 -65 -95 -107 -225 -115 -355 -4 -57 -2 -79 4 -65 5 11 10 41
10 66 2 111 74 303 143 382 28 33 43 40 103 51 85 17 247 20 335 6z m710 -570
c0 -7 -303 -10 -890 -10 -587 0 -890 3 -890 10 0 7 303 10 890 10 587 0 890
-3 890 -10z m400 -65 l0 -25 -1265 0 -1265 0 0 25 0 25 1265 0 1265 0 0 -25z
m-100 -105 l0 -50 -175 0 -175 0 0 -55 0 -55 -840 0 -840 0 0 55 0 55 -175 0
-175 0 0 50 0 50 1190 0 1190 0 0 -50z m-2410 -135 l0 -55 -285 0 -285 0 0 55
0 55 285 0 285 0 0 -55z m350 15 c0 -36 -2 -40 -25 -40 -16 0 -25 -6 -25 -15
0 -13 -22 -15 -135 -15 l-135 0 0 55 0 55 160 0 160 0 0 -40z m2060 -15 l0
-55 -135 0 c-113 0 -135 2 -135 15 0 9 -9 15 -25 15 -22 0 -25 4 -25 40 l0 40
160 0 160 0 0 -55z m610 0 l0 -55 -290 0 -290 0 0 55 0 55 290 0 290 0 0 -55z
m-3020 -640 l0 -555 -105 0 -105 0 0 555 0 555 105 0 105 0 0 -555z m2110 500
l0 -55 -890 0 -890 0 0 55 0 55 890 0 890 0 0 -55z m540 -500 l0 -555 -105 0
-105 0 0 555 0 555 105 0 105 0 0 -555z m-2890 -10 l0 -485 -145 0 -145 0 0
485 0 485 145 0 145 0 0 -485z m540 0 l0 -485 -135 0 -135 0 0 485 0 485 135
0 135 0 0 -485z m2110 0 l0 -485 -135 0 -135 0 0 485 0 485 135 0 135 0 0
-485z m560 0 l0 -485 -145 0 -145 0 0 485 0 485 145 0 145 0 0 -485z m-2620
400 c0 -20 5 -25 25 -25 l25 0 0 -420 0 -420 -25 0 c-22 0 -25 -4 -25 -40 0
-22 -4 -40 -10 -40 -7 0 -10 168 -10 485 0 317 3 485 10 485 6 0 10 -11 10
-25z m380 0 c0 -20 5 -25 25 -25 l25 0 0 -420 0 -420 -25 0 c-22 0 -25 -4 -25
-40 l0 -40 -50 0 -50 0 0 40 c0 33 -3 40 -20 40 -19 0 -20 9 -22 410 -2 226
-1 415 0 420 2 6 12 10 23 10 14 0 19 7 19 25 0 23 3 25 50 25 47 0 50 -2 50
-25z m330 0 c0 -22 4 -25 35 -25 l35 0 0 -420 0 -420 -35 0 c-34 0 -35 -1 -35
-40 0 -38 -2 -40 -30 -40 -28 0 -30 2 -30 40 0 36 -2 40 -25 40 l-25 0 0 420
0 420 25 0 c20 0 25 5 25 25 0 21 5 25 30 25 25 0 30 -4 30 -25z m380 0 c0
-20 5 -25 25 -25 l25 0 0 -419 0 -420 -22 -3 c-19 -2 -23 -9 -23 -38 0 -35 -1
-35 -48 -38 l-47 -3 0 40 c0 37 -2 41 -25 41 l-25 0 0 420 0 420 25 0 c20 0
25 5 25 25 0 23 4 25 45 25 41 0 45 -2 45 -25z m370 0 c0 -20 5 -25 25 -25
l25 0 0 -420 0 -420 -25 0 c-22 0 -25 -4 -25 -40 l0 -40 -50 0 -50 0 0 40 c0
33 -3 40 -20 40 -20 0 -20 7 -20 420 0 413 0 420 20 420 15 0 20 7 20 25 0 23
3 25 50 25 47 0 50 -2 50 -25z m300 -460 c0 -317 -3 -485 -10 -485 -5 0 -10
18 -10 40 0 33 -3 40 -20 40 -20 0 -20 7 -20 420 0 413 0 420 20 420 15 0 20
7 20 25 0 14 5 25 10 25 7 0 10 -168 10 -485z m-1558 425 c2 -5 2 -194 0 -420
l-2 -410 -60 0 -60 0 0 420 0 420 59 0 c33 0 61 -4 63 -10z m368 -410 l0 -420
-55 0 -55 0 0 420 0 420 55 0 55 0 0 -420z m350 0 l0 -420 -55 0 -55 0 0 420
0 420 55 0 55 0 0 -420z m370 0 l0 -420 -60 0 -60 0 0 420 0 420 60 0 60 0 0
-420z m380 0 l0 -420 -65 0 -65 0 0 420 0 420 65 0 65 0 0 -420z m-1670 -605
l0 -75 -462 0 -463 0 2 72 c1 40 2 74 3 75 0 1 207 3 460 3 l460 0 0 -75z
m1710 40 l0 -35 -840 0 -840 0 0 35 0 35 840 0 840 0 0 -35z m960 -40 l0 -75
-464 0 -463 0 2 73 c1 39 3 73 4 74 0 1 208 2 461 2 l460 0 0 -74z m-960 -50
l0 -25 -840 0 -840 0 0 25 0 25 840 0 840 0 0 -25z"/>
<path d="M2164 4070 c-31 -12 -34 -21 -23 -66 l11 -41 53 5 c37 3 71 -2 114
-17 60 -21 124 -27 155 -15 12 5 16 20 16 59 l0 52 -47 -8 c-49 -9 -158 7
-201 30 -24 13 -48 13 -78 1z"/>
</g>
</svg>
